<svg width="48" height="48" viewBox="0 0 48 48" fill="none" xmlns="http://www.w3.org/2000/svg">
<rect x="0.5" y="0.5" width="47" height="47" rx="7.5" fill="#81C6C3"/>
<rect x="0.5" y="0.5" width="47" height="47" rx="7.5" stroke="#075E66"/>
<path d="M23 28V19.85L20.4 22.45L19 21L24 16L29 21L27.6 22.45L25 19.85V28H23ZM18 32C17.45 32 16.9792 31.8042 16.5875 31.4125C16.1958 31.0208 16 30.55 16 30V27H18V30H30V27H32V30C32 30.55 31.8042 31.0208 31.4125 31.4125C31.0208 31.8042 30.55 32 30 32H18Z" fill="white"/>
</svg>
