<svg width="16" height="16" viewBox="0 0 16 16" fill="none" xmlns="http://www.w3.org/2000/svg">
<path d="M14.6668 5.33398V8.66732C14.6668 11.334 13.3335 12.6673 10.6668 12.6673H10.3335C10.1268 12.6673 9.92683 12.7673 9.80016 12.934L8.80016 14.2673C8.36016 14.854 7.64016 14.854 7.20016 14.2673L6.20016 12.934C6.0935 12.7873 5.84683 12.6673 5.66683 12.6673H5.3335C2.66683 12.6673 1.3335 12.0007 1.3335 8.66732V5.33398C1.3335 2.66732 2.66683 1.33398 5.3335 1.33398H8.00016" stroke="#86909C" stroke-width="1.5" stroke-miterlimit="10" stroke-linecap="round" stroke-linejoin="round"/>
<path d="M10.1335 3.07973C9.91348 2.41973 10.1735 1.60639 10.8935 1.37973C11.2668 1.26639 11.7335 1.35973 12.0002 1.71306C12.2535 1.34639 12.7335 1.26639 13.1068 1.37973C13.8268 1.59973 14.0868 2.41973 13.8668 3.07973C13.5268 4.12639 12.3335 4.66639 12.0002 4.66639C11.6668 4.66639 10.4868 4.13306 10.1335 3.07973Z" stroke="#86909C" stroke-width="1.5" stroke-linecap="round" stroke-linejoin="round"/>
<path d="M10.6641 7.33333H10.6701" stroke="#86909C" stroke-width="2" stroke-linecap="round" stroke-linejoin="round"/>
<path d="M7.99715 7.33333H8.00314" stroke="#86909C" stroke-width="2" stroke-linecap="round" stroke-linejoin="round"/>
<path d="M5.32967 7.33333H5.33566" stroke="#86909C" stroke-width="2" stroke-linecap="round" stroke-linejoin="round"/>
</svg>
