<svg width="226" height="226" viewBox="0 0 226 226" fill="none" xmlns="http://www.w3.org/2000/svg">
<path d="M1 113C1 83.2957 12.8 54.8081 33.804 33.804C54.8081 12.8 83.2958 1 113 1V113L1 113Z" fill="#0FC6C2" stroke="white" stroke-width="2"/>
<path d="M113 1C135.152 1 156.806 7.56869 175.224 19.8754C193.642 32.1821 207.997 49.6741 216.475 70.1395C224.952 90.6048 227.169 113.124 222.848 134.85C218.526 156.576 207.859 176.532 192.196 192.196C176.532 207.859 156.576 218.526 134.85 222.848C113.124 227.169 90.6048 224.952 70.1395 216.475C49.6741 207.997 32.1821 193.642 19.8754 175.224C7.56868 156.806 0.999999 135.152 1 113H113V1Z" fill="#83D0A2" stroke="white" stroke-width="2"/>
</svg>
