<svg width="178" height="178" viewBox="0 0 178 178" fill="none" xmlns="http://www.w3.org/2000/svg">
<path d="M12.7898 45C20.515 31.6196 31.6268 20.5089 45.008 12.7851C58.3892 5.06137 73.5681 0.99676 89.0185 1L89 89L12.7898 45Z" fill="#83D0A2" stroke="white" stroke-width="2"/>
<path d="M45 165.21C34.9919 159.432 26.2199 151.739 19.1849 142.571C12.1499 133.403 6.98952 122.939 3.99852 111.776C1.00753 100.614 0.244449 88.9711 1.75285 77.5137C3.26126 66.0562 7.01161 55.0081 12.7898 45L89 89L45 165.21Z" fill="#0FC6C2" stroke="white" stroke-width="2"/>
<path d="M89 1C102.497 1 115.814 4.10478 127.919 10.0742C140.025 16.0436 150.595 24.7176 158.812 35.4253C167.03 46.1331 172.674 58.5875 175.308 71.8253C177.942 85.063 177.496 98.7294 174.004 111.767C170.512 124.805 164.068 136.865 155.17 147.014C146.271 157.163 135.158 165.129 122.689 170.296C110.22 175.463 96.7292 177.693 83.2606 176.813C69.792 175.932 56.7064 171.966 45.016 165.219L89 89V1Z" fill="#57A9FB" stroke="white" stroke-width="2"/>
</svg>
